<?xml version="1.0" encoding="UTF-8" standalone="no"?><!DOCTYPE svg PUBLIC "-//W3C//DTD SVG 1.1//EN" "http://www.w3.org/Graphics/SVG/1.1/DTD/svg11.dtd"><svg width="100%" height="100%" viewBox="0 0 13375 2405" version="1.1" xmlns="http://www.w3.org/2000/svg" xmlns:xlink="http://www.w3.org/1999/xlink" xml:space="preserve" xmlns:serif="http://www.serif.com/" style="fill-rule:evenodd;clip-rule:evenodd;stroke-linejoin:round;stroke-miterlimit:2;"><rect id="Artboard2" x="0" y="0" width="13373" height="2400.92" style="fill:none;"/><g><g><path d="M876.042,738.179c25.904,-0.004 47.1,21.196 47.1,47.1c0,25.884 -21.196,47.084 -47.1,47.084c-25.884,0 -47.084,-21.2 -47.084,-47.084c0,-25.904 21.2,-47.104 47.084,-47.104l0,0.004Z" style="fill:#F1E9E9;"/><path d="M1022.03,832.363l7.063,0c25.887,-3.526 43.542,-28.246 40.021,-54.151c-3.525,-25.904 -28.25,-43.558 -54.15,-40.033c-25.904,3.542 -43.559,28.263 -40.038,54.167c3.542,22.358 23.559,40.016 47.104,40.016l-0,0.001Z" style="fill:#F1E9E9;fill-rule:nonzero;"/><path d="M1158.58,830c3.542,1.179 7.067,1.179 10.608,1.179c8.23,0 17.659,-2.342 24.725,-7.062c10.588,-7.05 17.655,-17.659 21.18,-29.429c2.358,-11.771 1.179,-24.721 -5.888,-35.313c-7.062,-10.592 -17.654,-17.658 -29.425,-21.2c-11.771,-2.342 -24.721,-1.162 -35.313,5.888c-10.608,7.066 -17.658,17.675 -21.199,29.445c-7.063,24.721 9.429,50.605 35.312,56.492Z" style="fill:#F1E9E9;fill-rule:nonzero;"/><path d="M2057.99,835.888c-0,0 1.179,0 -0,0l339.041,-2.346c28.25,0 51.792,-23.542 51.792,-51.804c-0,-28.246 -23.542,-51.788 -51.792,-51.788l-337.862,2.342c-28.263,0 -51.804,23.558 -51.804,51.804c-0,14.133 5.883,27.067 15.312,36.496c9.408,10.587 21.179,15.296 35.313,15.296Z" style="fill:#F1E9E9;fill-rule:nonzero;"/><path d="M876.042,1068.99c25.904,0 47.1,21.183 47.1,47.083c0,25.904 -21.196,47.083 -47.1,47.083c-25.884,0 -47.084,-21.179 -47.084,-47.083c0,-25.9 21.2,-47.083 47.084,-47.083Z" style="fill:#F1E9E9;"/><path d="M1022.03,1161.98l7.063,0c25.887,-3.525 43.542,-28.246 40.021,-54.15c-3.525,-25.9 -28.25,-43.558 -54.15,-40.016c-25.904,3.525 -43.559,28.245 -40.038,54.15c3.542,23.541 23.559,40.016 47.104,40.016Z" style="fill:#F1E9E9;fill-rule:nonzero;"/><path d="M1158.58,1160.82c3.542,1.162 7.067,1.162 10.608,1.162c8.23,0 17.659,-2.346 24.725,-7.05c10.588,-7.062 17.655,-17.671 21.18,-29.441c2.358,-11.771 1.179,-24.726 -5.888,-35.313c-7.062,-10.592 -17.654,-17.658 -29.425,-21.183c-11.771,-2.359 -24.721,-1.179 -35.313,5.887c-10.608,7.05 -17.658,17.654 -21.199,29.425c-7.063,24.725 9.429,50.625 35.312,56.513Z" style="fill:#F1E9E9;fill-rule:nonzero;"/><path d="M2057.99,1166.7c-0,0 1.179,0 -0,0l339.041,-2.358c28.25,0 51.792,-23.542 51.792,-51.809c-0,-28.246 -23.542,-51.787 -51.792,-51.787l-337.862,2.346c-28.263,0 -51.804,23.558 -51.804,51.804c-0,14.133 5.883,27.083 15.312,36.491c9.408,10.592 21.179,15.313 35.313,15.313Z" style="fill:#F1E9E9;fill-rule:nonzero;"/><path d="M876.042,1497.5c25.904,0 47.1,-21.2 47.1,-47.1c0,-25.888 -21.196,-47.083 -47.1,-47.083c-25.884,0 -47.084,21.196 -47.084,47.083c0,25.9 21.2,47.1 47.084,47.1Z" style="fill:#F1E9E9;fill-rule:nonzero;"/><path d="M993.767,1488.08c8.245,5.883 17.658,9.425 28.266,9.425l7.063,0c11.771,-1.179 23.542,-8.246 30.608,-18.838c7.05,-10.587 10.592,-22.379 8.229,-35.312c-1.179,-11.788 -8.229,-23.558 -18.837,-30.608c-10.588,-7.063 -22.359,-10.605 -35.313,-8.246c-11.77,1.183 -23.541,8.246 -30.608,18.837c-7.063,10.592 -10.587,22.363 -8.246,35.313c2.363,10.591 8.25,22.362 18.838,29.425l0,0.004Z" style="fill:#F1E9E9;fill-rule:nonzero;"/><path d="M1158.58,1495.14c3.542,1.183 7.067,1.183 10.608,1.183c8.23,0 17.659,-2.363 24.725,-7.067c10.588,-7.066 17.655,-17.658 21.18,-29.429c5.883,-24.721 -10.592,-50.625 -35.313,-56.508c-25.904,-5.888 -50.625,10.591 -56.512,35.312c-2.342,11.771 -1.18,24.721 5.887,35.329c5.883,10.592 16.492,17.659 29.425,21.18Z" style="fill:#F1E9E9;fill-rule:nonzero;"/><path d="M2057.99,1501.03c-0,0 1.179,0 -0,0l339.041,-2.346c28.25,0 51.792,-23.558 51.792,-51.804c-0,-28.246 -23.542,-51.804 -51.792,-51.804l-337.862,2.358c-28.263,0 -51.804,23.542 -51.804,51.809c-0,14.112 5.883,27.062 15.312,36.491c9.408,10.592 21.179,15.296 35.313,15.296Z" style="fill:#F1E9E9;fill-rule:nonzero;"/><path d="M2829.06,1869.5c-10.592,-11.771 -25.888,-17.654 -41.2,-17.654l-1.18,0c-94.166,0 -145.971,63.575 -176.579,101.25c-3.525,3.525 -5.887,7.045 -8.246,9.408c-23.541,25.904 -28.246,28.246 -41.2,29.429c-16.475,0 -20.016,-3.525 -47.083,-36.496c-27.083,-34.129 -71.804,-88.279 -147.15,-100.066l-1.183,-170.696l213.075,0c17.654,0 32.966,-8.229 44.737,-22.363c10.592,-11.771 17.659,-30.608 17.659,-48.262l-0.001,-993.575c0.001,-38.854 -28.245,-71.825 -62.395,-71.825l-1874.15,0c-17.655,0 -32.95,8.246 -44.721,22.379c-10.609,11.771 -17.659,30.608 -17.659,48.262l0,993.58c0,38.854 28.246,71.804 62.38,71.804l206.025,0l1.179,180.121c-56.509,20.016 -90.659,61.216 -114.2,90.641c-3.525,3.542 -5.888,5.888 -8.229,8.246c-23.559,25.904 -27.084,29.429 -40.034,29.429c-16.479,0 -20.021,-2.362 -47.083,-36.491c-31.792,-37.675 -83.596,-102.417 -180.125,-102.417c-34.129,0 -62.396,31.771 -62.396,71.808c0,38.854 28.267,71.804 62.396,71.804c40.037,0 62.396,25.905 87.121,57.692c31.787,38.854 67.1,82.396 140.087,82.396c67.1,0 103.592,-41.2 129.496,-70.625c1.179,-1.179 2.358,-3.525 4.704,-4.704l7.067,-7.067c28.262,-35.312 48.262,-56.512 85.938,-57.692l1.179,0c40.016,0 62.395,25.905 87.116,57.692c31.792,38.854 67.105,82.396 140.088,82.396c67.1,0 103.596,-41.2 129.496,-70.625c1.183,-1.179 2.362,-3.525 4.708,-4.704l7.062,-7.067c28.25,-35.312 48.267,-56.512 85.938,-57.692l1.183,0c40.017,0 62.396,25.905 87.117,57.692c31.771,38.854 67.1,82.396 140.087,82.396c67.1,0 103.592,-41.2 129.496,-70.625c1.179,-1.179 2.346,-3.525 4.704,-4.704l7.067,-7.067c28.246,-35.312 48.263,-56.512 85.938,-57.692l1.179,0c37.658,0 57.675,21.2 87.104,57.692c31.787,38.854 67.117,82.396 138.921,82.396l1.183,0c65.917,0 102.413,-41.2 128.313,-70.625c1.183,-1.179 2.345,-3.525 4.708,-4.704l7.062,-7.067c28.25,-35.312 48.267,-56.512 85.938,-57.692l1.183,0c37.671,0 57.671,21.2 87.1,57.692c31.788,38.854 67.117,82.396 140.104,82.396l1.163,0c67.117,0 102.429,-41.2 128.333,-70.625c1.163,-1.179 2.346,-3.525 4.704,-4.704l7.067,-7.067c24.721,-30.608 47.083,-57.692 87.1,-57.692c35.329,0 62.396,-31.787 62.396,-70.625c-10.588,-22.379 -17.654,-43.558 -31.788,-57.691l0.001,-0Zm-680.433,94.183c-23.541,25.904 -27.066,29.429 -40.016,29.429c-16.496,-0 -20.017,-2.362 -47.1,-36.491c-31.771,-37.675 -83.58,-102.417 -180.105,-102.417l-1.183,-0c-94.183,-0 -145.971,63.562 -176.579,101.233c-3.542,3.542 -5.883,7.067 -8.246,9.429c-23.542,25.884 -27.083,29.425 -40.017,29.425c-16.495,-0 -20.016,-2.358 -47.1,-36.491c-31.791,-37.675 -83.579,-102.429 -180.104,-102.429l-1.183,-0c-94.183,-0 -145.971,63.575 -176.579,101.25c-3.542,3.52 -5.904,5.883 -8.246,9.408c-23.542,25.904 -27.083,29.446 -40.033,29.446c-16.48,-0 -20,-2.363 -47.084,-36.496c-24.725,-29.442 -60.037,-73.004 -117.729,-93.004l-1.179,-178.938l1205.49,-0l1.18,191.892c-38.855,21.179 -64.759,52.967 -84.759,77.692c-4.704,1.179 -7.062,3.52 -9.425,7.062l-0.003,-0Zm367.292,-609.808l0,188.35l-1748.18,-0l0,-188.35l1748.18,-0Zm0,-331.979l0,183.645l-1748.18,-0l0,-183.645l1748.18,-0Zm0,-330.796l0,183.646l-1748.18,-0l0,-183.646l1748.18,-0Z" style="fill:#F1E9E9;fill-rule:nonzero;"/><path d="M546.425,389.721c9.425,24.725 32.967,41.2 58.871,41.2c8.229,0 15.296,-1.163 21.179,-3.525l1.183,0c15.292,-5.884 28.246,-17.654 35.313,-32.967c7.062,-15.296 7.062,-32.954 1.179,-48.267l-60.033,-158.92c-5.888,-15.296 -17.659,-28.25 -32.971,-35.313c-15.296,-7.067 -32.967,-7.067 -48.263,-1.183c-15.312,5.887 -28.246,17.658 -35.312,32.971c-7.067,15.295 -7.067,32.95 -1.184,48.262l60.038,157.742Z" style="fill:#F1E9E9;fill-rule:nonzero;"/><path d="M485.208,749.95c31.788,-12.938 48.263,-48.267 36.492,-81.217c-5.883,-15.312 -17.654,-28.266 -32.95,-35.329c-15.313,-7.05 -32.967,-7.05 -48.279,-1.162l-157.746,60.033c-15.296,5.883 -28.246,17.654 -35.313,32.95c-7.066,15.312 -7.066,32.971 -1.179,48.283c9.409,24.721 32.967,40.017 58.854,40.017c8.246,0 15.313,-1.179 21.196,-3.525l158.925,-60.05Z" style="fill:#F1E9E9;fill-rule:nonzero;"/><path d="M279.2,490.971l135.383,61.217c8.23,3.525 16.475,4.704 25.888,4.704c24.721,0 47.1,-14.134 57.687,-36.492c7.067,-15.312 7.067,-32.971 1.184,-48.262c-5.888,-15.313 -17.659,-28.267 -32.971,-34.15l-135.383,-61.217c-15.292,-7.067 -32.95,-7.067 -48.263,-1.179c-15.296,5.883 -28.246,17.671 -34.133,32.966c-7.063,15.313 -8.246,31.788 -2.359,47.084c5.884,15.312 17.655,28.266 32.967,35.329Z" style="fill:#F1E9E9;fill-rule:nonzero;"/></g></g><g><g><path d="M3105.05,1691.04l0,-137.796l121.354,-22.638l0,-820.641l-121.354,-22.621l0,-137.796l473.054,0l0,137.796l-123.404,22.621l0,804.2l322.917,0l10.279,-143.975l174.825,0l0,318.783l-857.675,0l0,2.067l0.004,0Z" style="fill:#F1E9E9;fill-rule:nonzero;"/><path d="M4553.04,1691.04c-6.18,-14.392 -12.342,-28.8 -16.459,-43.196c-4.112,-14.392 -8.229,-30.85 -10.296,-45.242c-26.737,30.85 -59.633,57.588 -98.716,76.096c-39.079,18.504 -84.321,28.8 -133.696,28.8c-82.258,0 -150.137,-22.621 -197.45,-67.883c-49.354,-45.242 -74.025,-106.942 -74.025,-185.105c0,-80.208 32.9,-141.908 96.667,-185.104c63.75,-43.191 158.366,-65.812 281.771,-65.812l117.237,0l0,-82.275c0,-41.129 -12.342,-71.979 -34.962,-94.621c-22.642,-22.621 -57.605,-32.896 -104.896,-32.896c-26.738,0 -49.375,2.046 -69.934,8.229c-20.57,6.163 -37.029,12.342 -49.375,20.554l-14.391,90.505l-172.759,0l0,-189.221c41.13,-28.8 90.484,-51.421 143.975,-71.996c53.471,-18.508 113.109,-28.783 176.875,-28.783c104.896,0 191.284,26.733 257.1,78.158c65.817,51.408 98.717,125.45 98.717,220.071l0,388.733c0,12.325 2.067,22.621 2.067,32.896l69.929,10.296l0,137.796l-267.379,0Zm-199.513,-154.255c34.963,0 65.817,-8.229 94.617,-22.62c28.783,-14.409 49.358,-32.917 65.816,-55.538l0.001,-129.583l-117.242,0c-49.354,0 -86.388,12.341 -111.058,34.966c-24.688,22.621 -37.03,49.376 -37.03,82.271c0,28.804 10.275,51.425 28.8,67.884c18.509,14.391 43.196,22.62 76.096,22.62Z" style="fill:#F1E9E9;fill-rule:nonzero;"/><path d="M5745.96,547.483c131.634,-0 234.463,32.917 308.509,100.779c76.108,67.884 113.125,154.255 113.125,263.267c0,109.009 -37.017,197.446 -113.125,263.263c-76.096,65.816 -178.942,98.733 -308.509,98.733l-193.333,0l0,252.967l123.404,22.641l0,137.792l-473.058,0l0,-137.792l121.354,-22.641l0,-816.525l-121.354,-22.625l0,-137.792l542.987,0l0,-2.067Zm-191.283,551.213l193.333,0c63.767,0 111.075,-16.458 143.975,-51.421c32.917,-34.967 49.359,-78.158 49.359,-133.679c-0,-55.542 -16.442,-100.783 -49.359,-135.75c-32.9,-34.963 -80.208,-53.488 -143.975,-53.488l-193.333,0l-0,374.342l-0,-0.004Z" style="fill:#F1E9E9;fill-rule:nonzero;"/><path d="M6184.04,605.071l0,-137.796l351.7,0l0,1063.33l111.058,22.638l0,137.796l-450.417,0l0,-137.796l111.059,-22.638l0,-902.916l-123.4,-22.621l0,0.003Z" style="fill:#F1E9E9;fill-rule:nonzero;"/><path d="M7220.62,1691.04c-6.162,-14.392 -12.342,-28.8 -16.458,-43.196c-4.096,-14.392 -8.213,-30.85 -10.28,-45.242c-26.733,30.85 -59.65,57.588 -98.712,76.096c-39.079,18.504 -84.342,28.8 -133.7,28.8c-82.275,0 -150.137,-22.621 -197.446,-67.883c-49.358,-45.242 -74.046,-106.942 -74.046,-185.105c0,-80.208 32.917,-141.908 96.667,-185.104c63.767,-43.191 158.367,-65.812 281.771,-65.812l117.237,0l0,-82.275c0,-41.129 -12.341,-71.979 -34.962,-94.621c-22.621,-22.621 -57.588,-32.896 -104.896,-32.896c-26.737,0 -49.358,2.046 -69.933,8.229c-20.555,6.163 -37.013,12.342 -49.355,20.554l-14.395,90.505l-172.775,0l0,-189.221c41.145,-28.8 90.504,-51.421 143.975,-71.996c53.471,-18.508 113.125,-28.783 176.891,-28.783c104.896,0 191.267,26.733 257.084,78.158c65.816,51.408 98.733,125.45 98.733,220.071l0,388.733c0,12.325 2.05,22.621 2.05,32.896l69.929,10.296l0,137.796l-267.379,0Zm-197.446,-154.255c34.963,0 65.813,-8.229 94.617,-22.62c28.783,-14.409 49.358,-32.917 65.816,-55.538l0.001,-129.583l-117.242,0c-49.358,0 -86.388,12.341 -111.058,34.966c-24.688,22.621 -37.03,49.376 -37.03,82.271c-0,28.804 10.292,51.425 28.8,67.884c16.459,14.391 41.13,22.62 76.096,22.62Z" style="fill:#F1E9E9;fill-rule:nonzero;"/><path d="M7798.58,633.871l0,207.725l148.092,0l0,160.437l-148.092,0l0,431.909c0,32.916 6.167,55.537 20.575,69.929c14.392,14.412 32.9,20.575 55.521,20.575c16.459,0 28.8,0 41.146,-2.067c12.342,-2.05 24.671,-4.096 39.079,-6.162l20.554,164.546c-24.67,8.212 -51.404,14.391 -76.091,18.508c-24.688,4.112 -51.425,6.162 -82.275,6.162c-78.159,0 -139.863,-22.62 -183.038,-65.816c-43.196,-43.192 -63.766,-113.125 -63.766,-205.675l-0.001,-431.913l-125.47,0l0,-160.433l125.471,0l-0.001,-207.725l228.296,0Z" style="fill:#F1E9E9;fill-rule:nonzero;"/><g><path d="M8408.54,1707.5c-123.404,0 -220.071,-39.079 -294.117,-117.237c-74.042,-78.163 -109.008,-178.942 -109.008,-298.23l0,-30.854c0,-125.466 34.966,-230.362 104.896,-310.571c69.929,-82.275 162.483,-121.354 279.72,-121.354c115.175,0 203.613,34.963 267.38,102.846c63.766,69.929 94.616,162.483 94.616,279.725l0,125.45l-505.971,0l-2.05,4.113c4.117,55.537 22.621,102.85 55.521,137.812c32.917,37.017 78.163,53.475 135.746,53.475c51.425,0 92.554,-4.117 125.471,-14.392c32.9,-10.295 69.929,-26.754 109.008,-47.312l61.704,141.912c-34.966,26.734 -80.208,51.421 -135.745,69.93c-57.588,14.391 -119.292,24.687 -187.171,24.687Zm-20.575,-705.471c-43.175,0.004 -76.092,16.463 -100.763,49.359c-24.687,32.916 -39.079,74.045 -45.258,127.52l2.062,4.113l281.771,0l0,-20.575c0,-49.354 -12.341,-88.433 -34.962,-117.221c-22.621,-28.8 -57.588,-43.196 -102.85,-43.196Z" style="fill:#F1E9E9;fill-rule:nonzero;"/></g><g><path d="M8830.17,1553.25l111.075,-22.638l0,-528.575l-125.471,0l0,-160.437l125.471,0l0,-94.6c0,-94.617 26.737,-168.663 82.258,-220.088c55.538,-51.404 131.646,-78.141 232.429,-78.141c18.508,0 39.063,2.05 59.633,4.1c20.575,2.062 43.196,6.179 65.817,12.341l-20.571,170.713c-12.329,-2.05 -24.671,-4.117 -37.016,-6.163c-12.342,-2.066 -24.688,-2.066 -41.125,-2.066c-37.034,0 -65.817,10.295 -84.342,30.85c-18.508,20.575 -28.783,49.375 -28.783,88.454l-0,94.6l168.645,0l-0,160.437l-168.645,0l-0,526.525l111.058,22.621l-0,137.796l-450.433,0l-0,-135.729Z" style="fill:#F1E9E9;fill-rule:nonzero;"/></g><g><path d="M9375.21,1257.07c-0,-127.517 34.967,-230.367 106.946,-310.575c69.929,-80.209 168.663,-121.354 294.113,-121.354c125.471,0 224.183,41.145 294.116,121.354c69.93,80.208 106.963,185.104 106.963,310.575l-0,16.458c-0,127.517 -34.967,232.413 -106.963,312.621c-69.933,80.208 -168.645,121.354 -292.05,121.354c-125.47,0 -224.183,-41.146 -296.179,-121.354c-69.933,-80.208 -106.946,-185.104 -106.946,-312.621l-0,-16.458Zm228.3,18.508c-0,78.158 14.392,139.858 41.125,187.167c26.738,47.308 72,69.933 131.634,69.933c59.654,0 102.85,-22.625 129.583,-69.933c26.737,-47.309 41.129,-109.009 41.129,-185.104l-0,-16.459c-0,-76.091 -14.392,-135.746 -41.129,-185.104c-26.733,-47.308 -71.996,-71.996 -131.629,-71.996c-59.654,0 -102.85,24.688 -129.588,71.996c-26.733,47.292 -41.125,109.013 -41.125,185.104l-0,14.396Z" style="fill:#F1E9E9;fill-rule:nonzero;"/></g><g><path d="M10253.5,1553.25l109.009,-22.638l0.004,-526.529l-121.359,-22.621l0,-137.796l335.263,0l10.279,123.405c20.571,-43.196 45.242,-78.159 76.092,-102.846c30.866,-24.671 67.883,-37.017 109.012,-37.017c12.342,0 24.688,0 37.029,2.05c12.346,2.067 24.671,4.113 32.9,6.179l-22.62,207.725l-94.6,-2.046c-32.917,0 -61.721,6.163 -82.275,20.555c-22.621,12.345 -39.08,30.85 -49.359,55.537l0,413.404l108.992,22.638l0,137.796l-448.367,0l-0,-137.796Z" style="fill:#F1E9E9;fill-rule:nonzero;"/></g><g><path d="M10911.3,979.408l-0,-137.812l335.263,0l10.275,113.125c26.737,-41.125 61.704,-71.979 102.85,-94.617c41.125,-22.621 88.433,-32.9 141.908,-32.9c53.471,0 100.779,12.346 139.863,37.013c39.079,24.687 67.862,59.654 88.437,109.012c26.734,-45.241 59.65,-80.208 102.846,-106.946c41.129,-24.687 90.483,-39.079 148.071,-39.079c84.342,0 150.158,28.784 197.45,86.388c49.375,57.587 71.996,146.025 71.996,263.266l-0,353.75l111.058,22.638l-0,137.796l-438.088,0l-0,-137.796l98.73,-22.638l-0,-355.816c-0,-63.75 -10.292,-109.013 -30.85,-133.68c-20.571,-24.687 -51.421,-37.033 -92.55,-37.033c-32.917,0 -59.655,8.229 -84.342,20.575c-24.671,14.392 -43.196,34.963 -57.587,59.65l-0.001,442.188l92.555,22.641l-0,137.792l-413.405,0l0.001,-137.792l92.554,-22.641l-0.005,-351.7c0.005,-63.75 -10.275,-106.946 -30.85,-133.68c-20.57,-26.737 -51.42,-39.083 -94.616,-39.083c-30.85,0 -57.588,6.167 -80.209,18.508c-22.62,12.346 -43.195,28.805 -57.587,49.359l-0,458.662l98.733,22.621l-0,137.796l-440.154,0l-0,-137.796l111.058,-22.621l-0,-524.479l-123.404,-24.671Z" style="fill:#F1E9E9;fill-rule:nonzero;"/></g><g><path d="M12752.2,1707.5c-123.404,0 -220.071,-39.079 -294.117,-117.237c-74.046,-78.163 -109.008,-178.942 -109.008,-298.23l0,-30.854c0,-125.466 34.962,-230.362 104.896,-310.571c69.929,-82.275 162.479,-121.354 279.72,-121.354c115.175,0 203.63,34.963 267.38,102.846c63.766,67.867 94.616,162.483 94.616,279.725l0,125.45l-505.971,0l-2.05,4.113c4.117,55.537 22.621,102.85 55.521,137.812c32.917,37.017 78.163,53.475 135.746,53.475c51.425,0 92.571,-4.117 125.471,-14.392c32.916,-10.295 69.929,-26.754 109.008,-47.312l61.704,141.912c-34.966,26.734 -80.208,51.421 -135.746,69.93c-57.587,14.391 -119.291,24.687 -187.17,24.687Zm-20.559,-705.471c-43.191,0.004 -76.108,16.463 -100.779,49.359c-24.687,32.916 -39.079,74.045 -45.262,127.52l2.066,4.113l281.771,0l0,-20.575c0,-49.354 -12.341,-88.433 -34.962,-117.221c-22.625,-28.8 -57.588,-43.196 -102.834,-43.196Z" style="fill:#F1E9E9;fill-rule:nonzero;"/></g></g></g></svg>
